<?xml version="1.0" standalone="no"?><!DOCTYPE svg PUBLIC "-//W3C//DTD SVG 1.1//EN" "http://www.w3.org/Graphics/SVG/1.1/DTD/svg11.dtd"><svg t="1554373294790" class="icon" style="" viewBox="0 0 1024 1024" version="1.1" xmlns="http://www.w3.org/2000/svg" p-id="17788" xmlns:xlink="http://www.w3.org/1999/xlink" width="200" height="200"><defs><style type="text/css"></style></defs><path d="M119.15 87.254c-1.281 1.281-2.242 5.445-2.242 9.288 0 8.967 74.302 170.382 82.949 179.99 8.967 10.569 23.059 9.608 36.51-2.242 6.085-5.124 12.49-9.608 13.771-9.608 1.601 0 21.458 18.575 43.877 40.994l40.994 40.994-12.17 14.412c-63.093 73.341-94.479 138.035-103.446 212.978-4.804 38.112-1.281 81.028 11.209 143.8 9.288 46.759 10.569 85.191 3.523 102.485-2.882 6.405-10.569 18.255-17.294 26.582-14.092 17.615-19.857 29.465-19.857 41.955 0 19.857 17.615 20.817 46.118 2.882 9.288-5.765 83.59-77.184 169.421-162.375l152.767-152.127 76.224 75.903 75.903 75.903 25.301 74.622c14.092 40.674 27.223 78.145 29.785 82.949 8.647 17.935 17.294 9.608 37.471-36.51 14.732-33.948 32.667-53.164 60.53-65.655 41.955-18.896 51.883-24.981 52.844-31.706 1.281-8.327 0-8.967-90.636-40.033l-73.661-25.621-74.302-74.302c-40.994-40.674-74.622-75.583-74.622-77.505s62.132-65.335 137.715-140.918c75.903-75.903 142.839-145.081 148.924-154.049 6.085-8.967 12.811-23.059 15.053-31.066 3.203-12.49 2.882-15.373-1.601-22.739-8.967-13.451-23.38-9.928-49.962 12.17-25.621 21.458-52.204 22.739-129.708 5.124-79.426-17.615-123.943-18.896-179.35-4.484-46.118 11.85-107.29 47.72-159.813 93.198-6.405 5.765-13.771 10.569-16.013 10.569-2.242 0-21.778-18.896-43.556-41.635l-39.393-41.635 11.53-12.811c13.451-15.053 14.732-26.262 3.843-36.19-7.366-7.046-162.696-80.067-178.389-83.91-4.484-0.961-8.967-0.961-10.249 0.32zM678.977 259.878c34.589 6.085 101.525 20.177 102.806 21.778 0.641 0.32-47.079 49.001-106.008 107.93l-107.29 107.29-72.060-72.060c-39.713-39.713-72.060-72.701-72.060-73.661 0-3.523 43.236-37.471 66.616-52.524 60.53-39.393 119.139-51.563 187.997-38.752zM523.648 538.51c0 3.843-217.141 221.305-218.742 219.383-1.281-1.601-3.523-12.811-16.974-86.472-7.046-36.51-6.085-92.557 1.922-123.303 11.53-45.478 32.667-84.23 73.021-133.872l17.615-21.778 71.74 71.42c39.393 39.073 71.42 72.701 71.42 74.622z" p-id="17789" fill="#2c2c2c"></path></svg>